<svg width="200" height="200" viewBox="0 0 200 200" fill="none" xmlns="http://www.w3.org/2000/svg">
<circle cx="153.437" cy="156.437" r="10.4368" fill="#0084FF"/>
<path d="M70.0001 141.806V58.0001H91.0091L99.5046 93.8187L108 58.0001H129.239V141.806H113.511V109.662C113.511 104.074 113.664 98.6022 113.97 93.2447C114.352 87.8872 114.812 82.7976 115.347 77.9759C115.883 73.1541 116.381 68.7916 116.84 64.8883L106.278 106.217H92.5016L82.1693 65.9215C82.705 69.2126 83.2408 73.1541 83.7765 77.7463C84.3123 82.3384 84.7715 87.3515 85.1541 92.7855C85.5368 98.143 85.7282 103.768 85.7282 109.662V141.806H70.0001Z" fill="#0084FF"/>
<path d="M115 9.50012C130.288 9.50012 142.709 9.48005 152.476 10.7931C162.516 12.1429 171.16 15.0563 178.052 21.9484C184.944 28.8404 187.857 37.4847 189.207 47.5245C190.52 57.291 190.5 69.7125 190.5 85.0001V115C190.5 130.288 190.52 142.709 189.207 152.476C187.857 162.516 184.944 171.16 178.052 178.052C171.16 184.944 162.516 187.857 152.476 189.207C142.709 190.52 130.288 190.5 115 190.5H85.0001C69.7124 190.5 57.291 190.52 47.5245 189.207C37.4847 187.857 28.8404 184.944 21.9484 178.052C15.0563 171.16 12.1429 162.516 10.7931 152.476C9.48004 142.709 9.50012 130.288 9.50012 115V85.0001C9.50012 69.7125 9.48004 57.291 10.7931 47.5245C12.1429 37.4847 15.0563 28.8404 21.9484 21.9484C28.8404 15.0563 37.4847 12.1429 47.5245 10.7931C57.291 9.48005 69.7124 9.50012 85.0001 9.50012H115Z" stroke="#0084FF" stroke-width="19" stroke-miterlimit="1.14896" stroke-linejoin="round"/>
</svg>
