<svg width="199" height="199" viewBox="0 0 199 199" fill="none" xmlns="http://www.w3.org/2000/svg">
<path d="M166.987 181.598V198.297H31.31V181.598H166.987ZM181.598 166.987V31.31C181.598 23.2404 175.056 16.6987 166.987 16.6987H31.31C23.2404 16.6987 16.6987 23.2404 16.6987 31.31V166.987C16.6987 175.056 23.2404 181.598 31.31 181.598V198.297L30.5028 198.286C13.852 197.865 0.431563 184.444 0.010192 167.794L0 166.987V31.31C0 14.2878 13.5838 0.43835 30.5028 0.010192L31.31 0H166.987L167.794 0.010192C184.713 0.438351 198.297 14.2878 198.297 31.31V166.987L198.286 167.794C197.865 184.444 184.444 197.865 167.794 198.286L166.987 198.297V181.598C175.056 181.598 181.598 175.056 181.598 166.987Z" fill="#0084FF"/>
<path d="M69.529 141.939V58.1322H90.538L99.0334 93.9508L107.529 58.1322H128.767V141.939H113.039V109.794C113.039 104.207 113.193 98.7343 113.499 93.3768C113.881 88.0193 114.341 82.9297 114.876 78.1079C115.412 73.2862 115.91 68.9237 116.369 65.0204L105.807 106.35H92.0304L81.6982 66.0536C82.2339 69.3446 82.7696 73.2862 83.3054 77.8783C83.8411 82.4705 84.3004 87.4836 84.683 92.9176C85.0657 98.2751 85.2571 103.9 85.2571 109.794V141.939H69.529Z" fill="#0084FF"/>
<path d="M171.161 160.725C171.161 166.489 166.489 171.161 160.725 171.161C154.961 171.161 150.288 166.489 150.288 160.725C150.288 154.961 154.961 150.288 160.725 150.288C166.489 150.288 171.161 154.961 171.161 160.725Z" fill="#0084FF"/>
</svg>
