<svg width="1080" height="199" viewBox="0 0 1080 199" fill="none" xmlns="http://www.w3.org/2000/svg">
<path d="M58.5121 138.098L0 109.643V94.5478L58.5121 66.0933V79.5858L18.5689 98.689C16.7877 99.4906 15.0956 100.203 13.4925 100.826C11.8894 101.361 10.6871 101.717 9.8856 101.895C10.7762 102.073 12.023 102.43 13.6261 102.964C15.3182 103.498 16.9658 104.166 18.5689 104.968L58.5121 124.205V138.098Z" fill="white"/>
<path d="M1021.49 138.098V124.472L1061.43 105.369C1063.21 104.567 1064.9 103.899 1066.51 103.365C1068.11 102.83 1069.31 102.474 1070.11 102.296C1069.22 102.118 1067.93 101.762 1066.24 101.227C1064.64 100.604 1063.03 99.8913 1061.43 99.0898L1021.49 79.9866V66.0933L1080 94.5478V109.643L1021.49 138.098Z" fill="white"/>
<path d="M939.65 160.808L986.673 35.2342H1001.64L954.612 160.808H939.65Z" fill="white"/>
<path d="M867.583 146.113C863.041 146.113 859.078 145.223 855.693 143.441C852.309 141.571 849.637 138.944 847.678 135.56C845.808 132.175 844.873 128.257 844.873 123.804V61.6848H820.159V48.5931H859.3V123.67C859.3 126.52 860.102 128.791 861.705 130.483C863.308 132.175 865.49 133.021 868.251 133.021H890.293V146.113H867.583Z" fill="white"/>
<path d="M776.26 147.449C770.293 147.449 765.038 146.247 760.496 143.842C756.043 141.438 752.57 138.053 750.076 133.689C747.672 129.236 746.469 124.026 746.469 118.059V100.693C746.469 94.6368 747.672 89.4269 750.076 85.0629C752.57 80.699 756.043 77.3148 760.496 74.9102C765.038 72.5056 770.293 71.3033 776.26 71.3033C782.316 71.3033 787.57 72.5056 792.023 74.9102C796.476 77.2257 799.905 80.5209 802.31 84.7958C804.803 88.9816 806.05 93.9689 806.05 99.7578V112.983H760.363V118.995C760.363 124.16 761.788 128.168 764.638 131.018C767.487 133.868 771.362 135.292 776.26 135.292C780.268 135.292 783.607 134.58 786.279 133.155C788.951 131.641 790.554 129.593 791.088 127.01H805.382C804.403 133.244 801.241 138.231 795.897 141.972C790.643 145.623 784.097 147.449 776.26 147.449ZM792.157 104.166V99.6242C792.157 94.2806 790.777 90.1393 788.016 87.2004C785.344 84.1723 781.425 82.6583 776.26 82.6583C771.183 82.6583 767.265 84.1723 764.504 87.2004C761.743 90.1393 760.363 94.3251 760.363 99.7578V102.964L793.226 102.83L792.157 104.166Z" fill="white"/>
<path d="M688.811 147.449C681.33 147.449 675.363 145.356 670.91 141.17C666.546 136.896 664.364 131.329 664.364 124.472C664.364 119.841 665.433 115.788 667.57 112.315C669.708 108.842 672.736 106.17 676.655 104.3C680.573 102.34 685.115 101.361 690.281 101.361H710.586V96.0173C710.586 91.8315 709.384 88.6699 706.979 86.5324C704.575 84.395 701.012 83.3263 696.292 83.3263C692.017 83.3263 688.589 84.1278 686.006 85.7309C683.423 87.334 682.043 89.5604 681.865 92.4103H667.704C668.149 86.1762 670.91 81.0998 675.987 77.1812C681.063 73.2626 687.876 71.3033 696.426 71.3033C705.51 71.3033 712.546 73.4852 717.533 77.8491C722.52 82.124 725.014 88.1355 725.014 95.8837V146.113H710.853V132.354H708.449L710.853 129.949C710.853 133.511 709.963 136.628 708.182 139.3C706.4 141.883 703.862 143.887 700.567 145.312C697.361 146.737 693.442 147.449 688.811 147.449ZM692.952 135.56C698.385 135.56 702.66 134.268 705.777 131.686C708.983 129.014 710.586 125.451 710.586 120.998V111.514H691.349C687.52 111.514 684.447 112.627 682.132 114.853C679.905 116.991 678.792 119.841 678.792 123.403C678.792 127.144 680.039 130.127 682.532 132.354C685.026 134.491 688.499 135.56 692.952 135.56Z" fill="white"/>
<path d="M587.202 146.113V48.5931H601.63V72.6391L601.496 86.666H604.969L601.229 90.0057C601.229 84.2169 603.01 79.6748 606.572 76.3796C610.224 72.9954 615.078 71.3033 621.134 71.3033C628.436 71.3033 634.27 73.6633 638.634 78.3835C642.998 83.0146 645.18 89.2933 645.18 97.2196V146.113H630.752V99.2234C630.752 94.2361 629.461 90.4065 626.878 87.7347C624.295 84.9739 620.777 83.5935 616.324 83.5935C611.782 83.5935 608.175 85.0184 605.504 87.8683C602.921 90.6292 601.63 94.5923 601.63 99.7578V146.113H587.202Z" fill="white"/>
<path d="M507.769 146.113V48.5931H522.196V102.162H535.021L554.124 72.6391H570.288L547.712 107.907L571.357 146.113H554.792L535.288 114.586H522.196V146.113H507.769Z" fill="white"/>
<path d="M426.598 146.113V133.021H452.114V85.7309H429.27V72.6391H466.542V133.021H490.053V146.113H426.598ZM457.992 59.9482C454.875 59.9482 452.381 59.1466 450.511 57.5436C448.641 55.8514 447.706 53.6249 447.706 50.8641C447.706 48.0142 448.641 45.7877 450.511 44.1846C452.381 42.4925 454.875 41.6464 457.992 41.6464C461.109 41.6464 463.603 42.4925 465.473 44.1846C467.343 45.7877 468.278 48.0142 468.278 50.8641C468.278 53.6249 467.343 55.8514 465.473 57.5436C463.603 59.1466 461.109 59.9482 457.992 59.9482Z" fill="white"/>
<path d="M344.092 146.113V48.5931H363.864L375.486 90.6737L387.509 48.5931H407.414V146.113H393.788V102.563C393.788 97.5758 393.877 92.1877 394.055 86.3988C394.322 80.5209 394.634 74.732 394.99 69.0322C395.346 63.3324 395.747 58.167 396.192 53.5359L381.497 103.231H369.341L355.18 54.7382C355.715 58.924 356.16 63.5551 356.516 68.6315C356.962 73.7079 357.273 79.096 357.451 84.7958C357.629 90.4956 357.719 96.418 357.719 102.563V146.113H344.092Z" fill="white"/>
<path d="M270.969 181.598V198.297H135.292V181.598H270.969ZM285.58 166.987V31.31C285.58 23.2404 279.039 16.6987 270.969 16.6987H135.292C127.223 16.6987 120.681 23.2404 120.681 31.31V166.987C120.681 175.056 127.223 181.598 135.292 181.598V198.297L134.485 198.286C117.835 197.865 104.414 184.444 103.993 167.794L103.982 166.987V31.31C103.982 14.2878 117.566 0.43835 134.485 0.010192L135.292 0H270.969L271.776 0.010192C288.695 0.438351 302.279 14.2878 302.279 31.31V166.987L302.269 167.794C301.847 184.444 288.427 197.865 271.776 198.286L270.969 198.297V181.598C279.039 181.598 285.58 175.056 285.58 166.987Z" fill="#0084FF"/>
<path d="M173.512 141.939V58.1322H194.521L203.016 93.9508L211.511 58.1322H232.75V141.939H217.022V109.794C217.022 104.207 217.175 98.7343 217.481 93.3768C217.864 88.0193 218.323 82.9297 218.859 78.1079C219.395 73.2862 219.892 68.9237 220.351 65.0204L209.789 106.35H196.013L185.681 66.0536C186.216 69.3446 186.752 73.2862 187.288 77.8783C187.824 82.4705 188.283 87.4835 188.666 92.9176C189.048 98.2751 189.24 103.9 189.24 109.794V141.939H173.512Z" fill="#0084FF"/>
<path d="M275.144 160.725C275.144 166.489 270.471 171.161 264.707 171.161C258.943 171.161 254.27 166.489 254.27 160.725C254.27 154.961 258.943 150.288 264.707 150.288C270.471 150.288 275.144 154.961 275.144 160.725Z" fill="#0084FF"/>
</svg>
